<svg width="940" height="427" viewBox="0 0 940 427" fill="none" xmlns="http://www.w3.org/2000/svg">
<rect width="940" height="427" rx="10" fill="#979EB8"/>
<path d="M899.333 374H894.333C893.449 374 892.601 374.351 891.976 374.976C891.351 375.601 891 376.449 891 377.333V382.333M921 382.333V377.333C921 376.449 920.649 375.601 920.024 374.976C919.399 374.351 918.551 374 917.667 374H912.667M891 395.667V400.667C891 401.551 891.351 402.399 891.976 403.024C892.601 403.649 893.449 404 894.333 404H899.333M912.667 404H917.667C918.551 404 919.399 403.649 920.024 403.024C920.649 402.399 921 401.551 921 400.667V395.667" stroke="white" stroke-width="2" stroke-linecap="round" stroke-linejoin="round"/>
</svg>
