<svg width="41" height="41" viewBox="0 0 41 41" fill="none" xmlns="http://www.w3.org/2000/svg">
<path d="M7.87781 34.5013L5.07031 3H35.9303L33.119 34.4963L20.4816 38L7.87781 34.5013Z" fill="#1572B6"/>
<path d="M20.5 35.3226L30.7125 32.4914L33.115 5.57642H20.5V35.3226Z" fill="#33A9DC"/>
<path d="M20.5 16.989H25.6125L25.965 13.0327H20.5V9.16895H30.1875L30.095 10.2052L29.1462 20.8527H20.5V16.989Z" fill="white"/>
<path d="M20.5245 27.0224L20.507 27.0274L16.2045 25.8649L15.9295 22.7837H12.0508L12.592 28.8499L20.5058 31.0474L20.5245 31.0424V27.0224Z" fill="#EBEBEB"/>
<path d="M25.2835 20.6887L24.8185 25.8625L20.5098 27.025V31.045L28.4298 28.85L28.4885 28.1975L29.1598 20.6887H25.2835Z" fill="white"/>
<path d="M20.5127 9.16895V13.0327H11.1802L11.1027 12.1639L10.9265 10.2052L10.834 9.16895H20.5127ZM20.4989 16.989V20.8527H16.2502L16.1727 19.984L15.9977 18.0252L15.9052 16.989H20.4989Z" fill="#EBEBEB"/>
</svg>
