<svg width="25" height="22" viewBox="0 0 25 22" fill="none" xmlns="http://www.w3.org/2000/svg">
<path d="M18.75 21.7812C18.5833 21.7812 18.4167 21.7604 18.25 21.7187C18.0833 21.6771 17.9271 21.6042 17.7812 21.5L14.0312 19.3125C13.7396 19.1458 13.5156 18.9219 13.3594 18.6406C13.2031 18.3594 13.125 18.0521 13.125 17.7188V13.3125C13.125 12.9792 13.2031 12.6719 13.3594 12.3906C13.5156 12.1094 13.7396 11.8854 14.0312 11.7187L17.7812 9.53125C17.9271 9.42708 18.0833 9.35417 18.25 9.3125C18.4167 9.27083 18.5833 9.25 18.75 9.25C18.9167 9.25 19.0781 9.27604 19.2344 9.32812C19.3906 9.38021 19.5417 9.44792 19.6875 9.53125L23.4375 11.7187C23.7292 11.8854 23.9583 12.1094 24.125 12.3906C24.2917 12.6719 24.375 12.9792 24.375 13.3125V17.7188C24.375 18.0521 24.2917 18.3594 24.125 18.6406C23.9583 18.9219 23.7292 19.1458 23.4375 19.3125L19.6875 21.5C19.5417 21.5833 19.3906 21.651 19.2344 21.7031C19.0781 21.7552 18.9167 21.7812 18.75 21.7812ZM0 20.5V17C0 16.3125 0.177083 15.6667 0.53125 15.0625C0.885417 14.4583 1.375 14 2 13.6875C3.0625 13.1458 4.26042 12.6875 5.59375 12.3125C6.92708 11.9375 8.39583 11.75 10 11.75H10.4375C10.5625 11.75 10.6875 11.7708 10.8125 11.8125C10.2083 13.3125 9.95833 14.8021 10.0625 16.2812C10.1667 17.7604 10.6667 19.1667 11.5625 20.5H0ZM10 10.5C8.625 10.5 7.44792 10.0104 6.46875 9.03125C5.48958 8.05208 5 6.875 5 5.5C5 4.125 5.48958 2.94792 6.46875 1.96875C7.44792 0.989583 8.625 0.5 10 0.5C11.375 0.5 12.5521 0.989583 13.5312 1.96875C14.5104 2.94792 15 4.125 15 5.5C15 6.875 14.5104 8.05208 13.5312 9.03125C12.5521 10.0104 11.375 10.5 10 10.5ZM15.8125 12.8125L18.75 14.5312L21.6875 12.8125L18.75 11.125L15.8125 12.8125ZM19.6875 19.3125L22.5 17.6875V14.25L19.6875 15.9062V19.3125ZM15 17.6875L17.8125 19.3437V15.9375L15 14.2812V17.6875Z" fill="url(#paint0_linear_2204_926)"/>
<defs>
<linearGradient id="paint0_linear_2204_926" x1="12.1875" y1="0.5" x2="12.1875" y2="21.7812" gradientUnits="userSpaceOnUse">
<stop stop-color="#20597E"/>
<stop offset="0.49" stop-color="#308AAC"/>
<stop offset="1" stop-color="#A989B3"/>
</linearGradient>
</defs>
</svg>
