<svg width="23" height="23" viewBox="0 0 23 23" fill="none" xmlns="http://www.w3.org/2000/svg">
<path d="M2.5 22.75C1.8125 22.75 1.22396 22.5052 0.734375 22.0156C0.244792 21.526 0 20.9375 0 20.25V2.75C0 2.0625 0.244792 1.47396 0.734375 0.984375C1.22396 0.494792 1.8125 0.25 2.5 0.25H20C20.6875 0.25 21.276 0.494792 21.7656 0.984375C22.2552 1.47396 22.5 2.0625 22.5 2.75V20.25C22.5 20.9375 22.2552 21.526 21.7656 22.0156C21.276 22.5052 20.6875 22.75 20 22.75H2.5ZM11.25 11.5L14.375 9.625L17.5 11.5V2.75H11.25V11.5Z" fill="#030910"/>
</svg>
