<svg width="20" height="21" viewBox="0 0 20 21" fill="none" xmlns="http://www.w3.org/2000/svg">
<g clip-path="url(#clip0_2182_1163)">
<path d="M7.625 16.3333C3.66666 17.5833 3.66666 14.25 2.08333 13.8333M13.1667 18.8333V15.6083C13.1964 15.211 13.1454 14.8115 13.017 14.4365C12.8887 14.0615 12.6861 13.7195 12.4225 13.4333C14.9083 13.1417 17.5208 12.15 17.5208 7.6C17.5206 6.43652 17.0955 5.31766 16.3333 4.475C16.6942 3.45709 16.6687 2.33196 16.2621 1.33333C16.2621 1.33333 15.3279 1.04167 13.1667 2.56667C11.3522 2.04902 9.43949 2.04902 7.625 2.56667C5.46374 1.04167 4.52958 1.33333 4.52958 1.33333C4.12296 2.33196 4.09744 3.45709 4.45833 4.475C3.69051 5.32391 3.26491 6.45288 3.27083 7.625C3.27083 12.1417 5.88333 13.1333 8.36916 13.4583C8.1087 13.7416 7.90783 14.0795 7.77961 14.4499C7.6514 14.8204 7.59872 15.2151 7.625 15.6083V18.8333" stroke="white" stroke-width="2.5" stroke-linecap="round" stroke-linejoin="round"/>
</g>
<defs>
<clipPath id="clip0_2182_1163">
<rect width="19" height="20" fill="white" transform="translate(0.5 0.5)"/>
</clipPath>
</defs>
</svg>
