<svg width="41" height="41" viewBox="0 0 41 41" fill="none" xmlns="http://www.w3.org/2000/svg">
<g clip-path="url(#clip0_2022_1120)">
<mask id="mask0_2022_1120" style="mask-type:luminance" maskUnits="userSpaceOnUse" x="0" y="0" width="41" height="41">
<path d="M40.5 0.5H0.5V40.5H40.5V0.5Z" fill="white"/>
</mask>
<g mask="url(#mask0_2022_1120)">
<path d="M31.125 0.5H9.875C4.69733 0.5 0.5 4.69733 0.5 9.875V31.125C0.5 36.3027 4.69733 40.5 9.875 40.5H31.125C36.3027 40.5 40.5 36.3027 40.5 31.125V9.875C40.5 4.69733 36.3027 0.5 31.125 0.5Z" fill="#E14E1D"/>
<path d="M8 6.4375L9.34531 21.5302H26.6438L26.0633 28.0036L20.4936 29.5095L14.9344 28.0058L14.5627 23.8492H9.55312L10.2695 31.8619L20.4925 34.7013L30.7284 31.8619L32.1008 16.5398H13.91L13.4533 11.4289H32.553L33 6.4375H8Z" fill="white"/>
<path d="M20.5 6.4375H8L9.34531 21.5302H20.5V16.5398H13.91L13.4533 11.4289H20.5V6.4375ZM20.5 29.5073L20.4936 29.5095L14.9344 28.0058L14.5627 23.8492H9.55312L10.2695 31.8619L20.4925 34.7013L20.5002 34.6991L20.5 29.5073Z" fill="#EBEBEB"/>
</g>
</g>
<defs>
<clipPath id="clip0_2022_1120">
<rect width="40" height="40" fill="white" transform="translate(0.5 0.5)"/>
</clipPath>
</defs>
</svg>
