<svg width="41" height="41" viewBox="0 0 41 41" fill="none" xmlns="http://www.w3.org/2000/svg">
<g clip-path="url(#clip0_2022_1172)">
<mask id="mask0_2022_1172" style="mask-type:luminance" maskUnits="userSpaceOnUse" x="0" y="0" width="41" height="41">
<path d="M40.5 0.5H0.5V40.5H40.5V0.5Z" fill="white"/>
</mask>
<g mask="url(#mask0_2022_1172)">
<path d="M0.5 0.5H40.5V40.5H0.5V0.5Z" fill="#F7DF1E"/>
<path d="M11.0177 33.9269L14.0787 32.0744C14.6693 33.1214 15.2065 34.0074 16.4951 34.0074C17.7302 34.0074 18.5091 33.5242 18.5091 31.6449V18.8639H22.268V31.698C22.268 35.5913 19.9859 37.3635 16.6562 37.3635C13.6491 37.3635 11.9037 35.8061 11.0176 33.9266M24.3098 33.5241L27.3704 31.7521C28.1762 33.0678 29.2234 34.0344 31.0759 34.0344C32.6335 34.0344 33.6266 33.2556 33.6266 32.1816C33.6266 30.8928 32.6063 30.4363 30.8879 29.6847L29.9484 29.2816C27.2363 28.1274 25.4374 26.6774 25.4374 23.6164C25.4374 20.7971 27.5854 18.6489 30.9418 18.6489C33.3315 18.6489 35.0499 19.4814 36.2849 21.6563L33.358 23.536C32.7135 22.3814 32.0157 21.925 30.9416 21.925C29.8407 21.925 29.1426 22.6231 29.1426 23.536C29.1426 24.6636 29.8407 25.1203 31.4516 25.8185L32.3913 26.2211C35.5866 27.5906 37.3855 28.9867 37.3855 32.128C37.3855 35.5114 34.7274 37.3639 31.1563 37.3639C27.6659 37.3639 25.4104 35.6992 24.3096 33.5242" fill="black"/>
</g>
</g>
<defs>
<clipPath id="clip0_2022_1172">
<rect width="40" height="40" fill="white" transform="translate(0.5 0.5)"/>
</clipPath>
</defs>
</svg>
