<svg width="23" height="23" viewBox="0 0 23 23" fill="none" xmlns="http://www.w3.org/2000/svg">
<path d="M0 19.55V17.25H2.875V9.2C2.875 7.60917 3.47396 6.19562 4.67188 4.95937C5.86979 3.72312 7.42708 2.91333 9.34375 2.53V1.725C9.34375 1.24583 9.55339 0.838542 9.97266 0.503125C10.3919 0.167708 10.901 0 11.5 0C12.099 0 12.6081 0.167708 13.0273 0.503125C13.4466 0.838542 13.6562 1.24583 13.6562 1.725V2.53C15.5729 2.91333 17.1302 3.72312 18.3281 4.95937C19.526 6.19562 20.125 7.60917 20.125 9.2V17.25H23V19.55H0ZM11.5 23C10.7094 23 10.0326 22.7748 9.46953 22.3244C8.90651 21.874 8.625 21.3325 8.625 20.7H14.375C14.375 21.3325 14.0935 21.874 13.5305 22.3244C12.9674 22.7748 12.2906 23 11.5 23Z" fill="white"/>
</svg>
