<svg width="41" height="41" viewBox="0 0 41 41" fill="none" xmlns="http://www.w3.org/2000/svg">
<path d="M31.75 15L30.625 14.625C30.625 14.375 30.75 14.125 30.75 13.875C31.625 9.74997 31 6.37497 29.125 5.24997C27.25 4.24997 24.25 5.24997 21.25 7.87497C21 8.12497 20.625 8.37497 20.375 8.62497C20.125 8.49997 20 8.24997 19.75 8.12497C16.75 5.37497 13.625 4.24997 11.75 5.37497C9.875 6.37497 9.375 9.62497 10.125 13.5C10.25 13.875 10.25 14.25 10.375 14.625C9.875 14.75 9.5 14.875 9.125 15C5.375 16.25 3 18.375 3 20.375C3 22.5 5.5 24.75 9.375 26C9.625 26.125 10 26.25 10.375 26.25C10.25 26.625 10.125 27.125 10.125 27.5C9.375 31.375 10 34.375 11.75 35.5C13.625 36.625 16.75 35.5 19.875 32.75C20.125 32.5 20.375 32.25 20.625 32.125C20.875 32.375 21.25 32.75 21.625 33C24.625 35.625 27.5 36.625 29.375 35.5C31.25 34.375 31.875 31.125 31.125 27.125C31.125 26.875 31 26.5 30.875 26.125C31.125 26 31.375 26 31.5 25.875C35.5 24.5 38.125 22.375 38.125 20.25C38 18.375 35.5 16.375 31.75 15ZM22.375 9.12497C25 6.87497 27.375 5.99997 28.5 6.62497C29.625 7.24997 30.125 9.99997 29.375 13.625C29.375 13.875 29.25 14.125 29.25 14.375C27.75 14 26.125 13.75 24.625 13.625C23.75 12.375 22.75 11.125 21.625 9.87497L22.375 9.12497ZM13.375 22.25C13.75 22.875 14 23.5 14.375 24.125C14.75 24.75 15.125 25.375 15.5 25.875C14.375 25.75 13.375 25.625 12.25 25.375C12.5 24.375 12.875 23.375 13.375 22.25ZM13.375 18.75C12.875 17.75 12.625 16.75 12.25 15.75C13.25 15.5 14.375 15.375 15.375 15.25C15 15.875 14.625 16.375 14.25 17C14 17.5 13.625 18.125 13.375 18.75ZM14.125 20.5C14.625 19.5 15.125 18.625 15.625 17.625C16.125 16.75 16.75 15.75 17.375 14.875C18.375 14.75 19.5 14.75 20.625 14.75C21.75 14.75 22.75 14.75 23.875 14.875C24.5 15.75 25 16.625 25.5 17.625C26 18.5 26.5 19.5 27 20.5C26.5 21.5 26 22.375 25.5 23.375C25 24.25 24.375 25.25 23.875 26.125C22.875 26.25 21.75 26.25 20.625 26.25C19.5 26.25 18.5 26.25 17.5 26.125C16.875 25.25 16.375 24.375 15.75 23.375C15.125 22.375 14.625 21.5 14.125 20.5ZM26.625 24.125C27 23.5 27.375 22.875 27.625 22.25C28.125 23.25 28.5 24.25 28.75 25.375C27.625 25.625 26.625 25.75 25.5 25.875C26 25.25 26.375 24.625 26.625 24.125ZM27.625 18.75C27.25 18.125 27 17.5 26.625 16.875C26.25 16.25 25.875 15.75 25.625 15.125C26.75 15.25 27.75 15.5 28.875 15.625C28.5 16.75 28.125 17.75 27.625 18.75ZM20.5 10.875C21.25 11.625 21.875 12.5 22.5 13.375C21.125 13.25 19.75 13.25 18.375 13.375C19.125 12.5 19.875 11.625 20.5 10.875ZM12.5 6.62497C13.625 5.99997 16.25 6.87497 19 9.37497L19.5 9.87497C18.375 11 17.375 12.25 16.5 13.625C14.875 13.75 13.375 14 11.875 14.375C11.75 14 11.75 13.625 11.625 13.25C10.875 9.87497 11.375 7.24997 12.5 6.62497ZM10.75 25C10.5 24.875 10.125 24.875 9.875 24.75C8.125 24.125 6.75 23.375 5.75 22.625C4.875 21.875 4.5 21.125 4.5 20.5C4.5 19.25 6.375 17.625 9.625 16.5C10 16.375 10.375 16.25 10.875 16.125C11.25 17.625 11.75 19.125 12.5 20.5C11.75 22 11.25 23.5 10.75 25ZM18.875 31.875C17.5 33.125 16.125 33.875 15 34.375C13.875 34.75 13.125 34.75 12.5 34.5C11.375 33.875 10.875 31.375 11.5 28.125C11.625 27.625 11.75 27.25 11.75 26.75C13.25 27.125 14.875 27.375 16.5 27.375C17.375 28.625 18.375 29.875 19.5 31.125C19.25 31.375 19.125 31.625 18.875 31.875ZM20.5 30.125C19.75 29.375 19.125 28.5 18.375 27.625H22.5C22 28.5 21.25 29.375 20.5 30.125ZM29.625 32.25C29.375 33.375 29 34.125 28.5 34.375C27.375 35 25 34.125 22.5 32C22.25 31.75 21.875 31.5 21.625 31.25C22.625 30.125 23.625 28.875 24.5 27.5C26.125 27.375 27.625 27.125 29.25 26.75C29.375 27 29.375 27.375 29.5 27.625C29.875 29.375 29.875 31 29.625 32.25ZM30.875 24.75C30.625 24.75 30.5 24.875 30.25 24.875C29.75 23.375 29.125 21.875 28.5 20.375C29.125 19 29.75 17.5 30.25 16C30.625 16.125 31 16.25 31.25 16.375C34.5 17.5 36.5 19.125 36.5 20.375C36.5 21.875 34.375 23.625 30.875 24.75Z" fill="#39A2CA"/>
<path d="M20.5 23.625C21.125 23.625 21.75 23.5 22.25 23.125C22.75 22.75 23.125 22.25 23.375 21.75C23.625 21.125 23.625 20.5 23.5 19.875C23.375 19.25 23.125 18.75 22.625 18.25C22.25 17.75 21.625 17.5 21 17.375C20.375 17.25 19.75 17.375 19.125 17.5C18.5 17.75 18 18.125 17.75 18.625C17.375 19.125 17.25 19.75 17.25 20.375C17.25 20.75 17.375 21.25 17.5 21.625C17.625 22 17.875 22.375 18.125 22.625C18.375 22.875 18.75 23.125 19.125 23.25C19.625 23.5 20.125 23.625 20.5 23.625Z" fill="#39A2CA"/>
</svg>
