<svg width="23" height="23" viewBox="0 0 23 23" fill="none" xmlns="http://www.w3.org/2000/svg">
<path d="M7.75 11.25C8.4375 11.25 9.02604 11.0052 9.51562 10.5156C10.0052 10.026 10.25 9.4375 10.25 8.75C10.25 8.0625 10.0052 7.47396 9.51562 6.98438C9.02604 6.49479 8.4375 6.25 7.75 6.25C7.0625 6.25 6.47396 6.49479 5.98438 6.98438C5.49479 7.47396 5.25 8.0625 5.25 8.75C5.25 9.4375 5.49479 10.026 5.98438 10.5156C6.47396 11.0052 7.0625 11.25 7.75 11.25ZM15.25 11.25C15.9375 11.25 16.526 11.0052 17.0156 10.5156C17.5052 10.026 17.75 9.4375 17.75 8.75C17.75 8.0625 17.5052 7.47396 17.0156 6.98438C16.526 6.49479 15.9375 6.25 15.25 6.25C14.5625 6.25 13.974 6.49479 13.4844 6.98438C12.9948 7.47396 12.75 8.0625 12.75 8.75C12.75 9.4375 12.9948 10.026 13.4844 10.5156C13.974 11.0052 14.5625 11.25 15.25 11.25ZM7.75 22.5V17.5H10.25V22.5H7.75ZM12.75 22.5V17.5H15.25V22.5H12.75ZM2.75 22.5C2.0625 22.5 1.47396 22.2552 0.984375 21.7656C0.494792 21.276 0.25 20.6875 0.25 20V7.5C0.25 5.41667 0.979167 3.64583 2.4375 2.1875C3.89583 0.729167 5.66667 0 7.75 0H15.25C17.3333 0 19.1042 0.729167 20.5625 2.1875C22.0208 3.64583 22.75 5.41667 22.75 7.5V20C22.75 20.6875 22.5052 21.276 22.0156 21.7656C21.526 22.2552 20.9375 22.5 20.25 22.5H17.75V17.5C17.75 16.8125 17.5052 16.224 17.0156 15.7344C16.526 15.2448 15.9375 15 15.25 15H7.75C7.0625 15 6.47396 15.2448 5.98438 15.7344C5.49479 16.224 5.25 16.8125 5.25 17.5V22.5H2.75Z" fill="white"/>
</svg>
