<svg width="30" height="30" viewBox="0 0 30 30" fill="none" xmlns="http://www.w3.org/2000/svg">
<path d="M25.1333 27L16.7333 18.6C16.0667 19.1333 15.3 19.5556 14.4333 19.8667C13.5667 20.1778 12.6444 20.3333 11.6667 20.3333C9.24444 20.3333 7.19444 19.4944 5.51667 17.8167C3.83889 16.1389 3 14.0889 3 11.6667C3 9.24444 3.83889 7.19444 5.51667 5.51667C7.19444 3.83889 9.24444 3 11.6667 3C14.0889 3 16.1389 3.83889 17.8167 5.51667C19.4944 7.19444 20.3333 9.24444 20.3333 11.6667C20.3333 12.6444 20.1778 13.5667 19.8667 14.4333C19.5556 15.3 19.1333 16.0667 18.6 16.7333L27 25.1333L25.1333 27ZM11.6667 17.6667C13.3333 17.6667 14.75 17.0833 15.9167 15.9167C17.0833 14.75 17.6667 13.3333 17.6667 11.6667C17.6667 10 17.0833 8.58333 15.9167 7.41667C14.75 6.25 13.3333 5.66667 11.6667 5.66667C10 5.66667 8.58333 6.25 7.41667 7.41667C6.25 8.58333 5.66667 10 5.66667 11.6667C5.66667 13.3333 6.25 14.75 7.41667 15.9167C8.58333 17.0833 10 17.6667 11.6667 17.6667Z" fill="white"/>
</svg>
