<svg width="40" height="40" viewBox="0 0 40 40" fill="none" xmlns="http://www.w3.org/2000/svg">
<g clip-path="url(#clip0_2049_2468)">
<path fill-rule="evenodd" clip-rule="evenodd" d="M39.5824 0.417162C39.7783 0.612836 39.913 0.861211 39.9704 1.13208C40.0277 1.40294 40.0051 1.68463 39.9052 1.94288L25.6195 39.0857C25.5184 39.3486 25.3419 39.5756 25.1121 39.7384C24.8823 39.9012 24.6095 39.9925 24.328 40.0007C24.0466 40.009 23.7689 39.9338 23.53 39.7848C23.2911 39.6357 23.1016 39.4193 22.9852 39.1629L17.0109 26.02L25.7995 17.2286C26.178 16.8224 26.3841 16.2851 26.3743 15.73C26.3645 15.1748 26.1396 14.6451 25.747 14.2525C25.3544 13.8599 24.8247 13.635 24.2696 13.6252C23.7144 13.6154 23.1772 13.8215 22.7709 14.2L13.9795 22.9886L0.836661 17.0172C0.579423 16.901 0.362366 16.7112 0.212883 16.4718C0.0634003 16.2324 -0.0118077 15.954 -0.00324915 15.6719C0.00530939 15.3898 0.0972509 15.1165 0.260971 14.8866C0.424692 14.6567 0.652854 14.4804 0.916661 14.38L38.0595 0.0943052C38.3174 -0.00491051 38.5985 -0.0272178 38.8688 0.0300857C39.1391 0.0873893 39.387 0.221845 39.5824 0.417162Z" fill="white"/>
</g>
<defs>
<clipPath id="clip0_2049_2468">
<rect width="40" height="40" fill="white"/>
</clipPath>
</defs>
</svg>
