<svg width="61" height="61" viewBox="0 0 61 61" fill="none" xmlns="http://www.w3.org/2000/svg">
<path d="M60.3277 49.7168L49.3553 29.4255C50.4747 26.8849 51.101 24.0771 51.101 21.123C51.101 9.73803 41.8713 0.509277 30.4872 0.509277C19.1004 0.509277 9.8716 9.73896 9.8716 21.123C9.8716 24.1483 10.5288 27.019 11.6988 29.6065L0.677539 49.7074C0.322168 50.3533 0.381231 51.1502 0.825606 51.7399C1.27092 52.3278 2.02279 52.6043 2.74086 52.4356L12.1524 50.2765L15.3737 59.2484C15.6249 59.9459 16.2615 60.4296 16.9993 60.484C17.0472 60.4878 17.093 60.4896 17.138 60.4896C17.4771 60.4895 17.8097 60.3975 18.1006 60.2233C18.3915 60.0491 18.6297 59.7994 18.7899 59.5006L28.3815 41.631C29.0808 41.7018 29.7833 41.7371 30.4862 41.7369C31.1377 41.7369 31.7808 41.7031 32.4164 41.6431L42.2161 59.5147C42.3895 59.8315 42.6508 60.0914 42.9685 60.2632C43.2862 60.435 43.6467 60.5114 44.0067 60.4831C44.7427 60.424 45.3764 59.9412 45.6257 59.2475L48.847 50.2756L58.2586 52.4346C58.9804 52.609 59.7248 52.3287 60.1701 51.7427C60.6173 51.1577 60.6773 50.3646 60.3276 49.7168H60.3277ZM17.4792 54.0162L15.1203 47.4442C14.7978 46.5508 13.8622 46.0305 12.9359 46.2508L5.975 47.8473L13.9092 33.3761C16.522 36.9058 20.2345 39.5683 24.5404 40.864L17.4792 54.0162ZM13.6382 21.123C13.6382 11.8333 21.1973 4.27516 30.4879 4.27516C39.7776 4.27516 47.3357 11.8333 47.3357 21.123C47.3357 30.4127 39.7776 37.9727 30.4879 37.9727C21.1963 37.9727 13.6382 30.4127 13.6382 21.123ZM48.0632 46.2507C47.1332 46.0313 46.2013 46.5507 45.8788 47.4441L43.5041 54.0638L36.2881 40.906C40.7084 39.6113 44.511 36.8785 47.1576 33.2457L55.0588 47.8548L48.0632 46.2507Z" fill="url(#paint0_linear_2005_329)"/>
<defs>
<linearGradient id="paint0_linear_2005_329" x1="30.5" y1="0.509277" x2="30.5" y2="60.4896" gradientUnits="userSpaceOnUse">
<stop stop-color="#20597E"/>
<stop offset="0.49" stop-color="#308AAC"/>
<stop offset="1" stop-color="#A989B3"/>
</linearGradient>
</defs>
</svg>
