<svg width="21" height="27" viewBox="0 0 21 27" fill="none" xmlns="http://www.w3.org/2000/svg">
<path d="M7.59375 15L8.6875 11.4375L5.8125 9.125H9.375L10.5 5.625L11.625 9.125H15.1875L12.2812 11.4375L13.375 15L10.5 12.7812L7.59375 15ZM3 26.625V16.9688C2.20833 16.0938 1.59375 15.0938 1.15625 13.9688C0.71875 12.8438 0.5 11.6458 0.5 10.375C0.5 7.58333 1.46875 5.21875 3.40625 3.28125C5.34375 1.34375 7.70833 0.375 10.5 0.375C13.2917 0.375 15.6562 1.34375 17.5938 3.28125C19.5312 5.21875 20.5 7.58333 20.5 10.375C20.5 11.6458 20.2812 12.8438 19.8438 13.9688C19.4062 15.0938 18.7917 16.0938 18 16.9688V26.625L10.5 24.125L3 26.625ZM10.5 17.875C12.5833 17.875 14.3542 17.1458 15.8125 15.6875C17.2708 14.2292 18 12.4583 18 10.375C18 8.29167 17.2708 6.52083 15.8125 5.0625C14.3542 3.60417 12.5833 2.875 10.5 2.875C8.41667 2.875 6.64583 3.60417 5.1875 5.0625C3.72917 6.52083 3 8.29167 3 10.375C3 12.4583 3.72917 14.2292 5.1875 15.6875C6.64583 17.1458 8.41667 17.875 10.5 17.875Z" fill="white"/>
</svg>
